PathFileType	4	(X/Y/Z)	C:/Users/opensim2020/Desktop/walking_exp_matlab/subject06_walking23_straight_01.trc	
DataRate	CameraRate	NumFrames	NumMarkers	Units	OrigDataRate	OrigDataStartFrame	OrigNumFrames	
100.00	100.00	4	45	mm	100.00	777	106	
Frame#	Time	LFHD			RFHD			LBHD			RBHD			C7			T10			CLAV			STRN			RBAK			LSHO			LUPA			LELB			LFRM			LWRA			LWRB			LFIN			RSHO			RUPA			RELB			RFRM			RWRA			RWRB			RFIN			LASI			RASI			LPSI			RPSI			LTHI			LKNE			LTIB			LANK			LHEE			LTOE			RTHI			RKNE			RTIB			RANK			RHEE			RTOE			*39			*40			*41			*42			*43			*44			
		X1	Y1	Z1	X2	Y2	Z2	X3	Y3	Z3	X4	Y4	Z4	X5	Y5	Z5	X6	Y6	Z6	X7	Y7	Z7	X8	Y8	Z8	X9	Y9	Z9	X10	Y10	Z10	X11	Y11	Z11	X12	Y12	Z12	X13	Y13	Z13	X14	Y14	Z14	X15	Y15	Z15	X16	Y16	Z16	X17	Y17	Z17	X18	Y18	Z18	X19	Y19	Z19	X20	Y20	Z20	X21	Y21	Z21	X22	Y22	Z22	X23	Y23	Z23	X24	Y24	Z24	X25	Y25	Z25	X26	Y26	Z26	X27	Y27	Z27	X28	Y28	Z28	X29	Y29	Z29	X30	Y30	Z30	X31	Y31	Z31	X32	Y32	Z32	X33	Y33	Z33	X34	Y34	Z34	X35	Y35	Z35	X36	Y36	Z36	X37	Y37	Z37	X38	Y38	Z38	X39	Y39	Z39	X40	Y40	Z40	X41	Y41	Z41	X42	Y42	Z42	X43	Y43	Z43	X44	Y44	Z44	X45	Y45	Z45	

40	0.390	1361.75146	-341.02032	1659.25208	1493.50232	-335.25745	1651.08862	1369.15991	-476.73526	1612.45190	1498.41882	-469.32556	1609.10583	1424.83203	-482.13727	1453.97717	1425.54504	-532.23566	1127.48267	1425.51819	-373.05975	1374.02905	1414.76099	-339.66467	1196.92810	1501.11279	-560.08081	1285.01843	1264.72180	-430.54010	1410.42078	1188.44641	-434.04797	1211.23462	1173.88953	-432.16330	1099.01416	1150.58228	-363.39151	966.16620	1188.67676	-260.82117	888.87054	1158.59668	-316.15457	856.48413	1152.44177	-243.57887	803.13373	1586.16504	-418.33212	1405.30225	1677.25879	-476.89191	1215.21155	1694.96545	-484.08432	1093.97595	1719.30054	-489.37573	974.94360	1698.73877	-456.52469	825.20911	1736.31885	-509.58524	838.54260	1743.98767	-486.83331	757.53064	1315.78149	-368.76712	954.02356	1534.67480	-360.91656	969.11682	1347.54395	-524.92505	988.65967	1514.47144	-513.69153	1000.72607	1268.56042	-427.74347	633.11395	1288.18420	-414.04742	470.98737	1288.67444	-610.88507	325.57733	1321.33545	-752.14331	227.32999	1365.94800	-787.85028	252.00764	1330.91675	-705.53577	86.86079	1591.59290	-375.02051	641.32758	1559.06775	-344.76559	521.51666	1547.98730	-381.35986	255.47507	1491.88525	-394.56720	73.47606	1445.16858	-432.49350	50.99059	1498.69409	-242.83238	39.70394	1424.75928	-436.07947	1704.15002															 
41	0.400	1362.31433	-326.96747	1661.02124	1494.12744	-321.10919	1653.01306	1369.92529	-462.79303	1614.57458	1499.19312	-455.31512	1611.41431	1426.15723	-468.93005	1456.19092	1426.99915	-518.66974	1129.62134	1426.46826	-359.73383	1376.07178	1415.87500	-326.18390	1199.04163	1502.94995	-546.47473	1287.29993	1265.74963	-417.50656	1412.30042	1189.81531	-422.78500	1212.96765	1175.77307	-422.56577	1100.62939	1152.15393	-357.47961	965.68561	1189.71484	-257.33081	884.72241	1159.59900	-313.98303	854.54462	1153.20740	-243.21356	798.53802	1587.11450	-404.58435	1407.62292	1678.53540	-460.54959	1216.91492	1696.05823	-465.82373	1095.56335	1720.39417	-467.44904	976.40771	1701.30518	-427.32840	829.34222	1736.90674	-483.65717	839.47949	1744.53223	-458.03568	759.35181	1317.45850	-354.54825	956.77185	1535.91956	-347.99280	971.15735	1348.52393	-510.83914	990.83820	1515.31042	-500.44116	1002.82452	1269.96350	-406.58990	636.21735	1290.35278	-388.24805	474.57251	1290.13647	-581.94501	324.91599	1322.42310	-720.68768	222.50282	1366.92847	-757.79950	245.62280	1330.52539	-667.27124	85.43222	1592.64490	-367.25949	641.80267	1560.31848	-339.61682	521.13812	1548.68591	-379.23492	255.47736	1492.35828	-394.51425	73.88340	1445.33032	-432.56534	51.22057	1498.84131	-242.76984	39.49263	1425.39148	-421.91739	1706.25366															 
42	0.410	1362.80713	-313.06705	1662.50049	1494.64905	-307.06549	1654.67395	1370.71582	-449.05612	1616.50232	1499.92090	-441.38034	1613.47217	1427.51501	-455.82513	1458.09912	1428.46338	-505.18774	1131.69153	1427.25940	-346.48883	1377.89465	1416.91553	-312.65857	1201.00854	1504.72607	-532.71368	1289.34827	1266.79163	-404.64798	1413.97839	1191.15137	-411.37024	1214.54932	1177.50964	-413.00052	1102.07727	1153.77209	-351.69879	965.23907	1190.78784	-254.18137	880.63049	1160.60535	-311.91678	852.67120	1154.04407	-243.27592	794.12994	1588.01599	-390.90167	1409.75122	1679.76587	-444.28510	1218.47644	1697.34644	-447.48392	1097.08838	1721.43396	-445.90012	977.91956	1700.14685	-403.17606	831.32910	1737.34924	-457.55829	840.46045	1744.80518	-429.28790	761.35205	1318.85034	-340.17484	958.93292	1537.69019	-334.90933	973.03992	1349.39063	-496.70892	992.76349	1516.22742	-487.17575	1004.59558	1271.46362	-385.88849	639.27295	1292.31189	-363.17474	478.20557	1291.81360	-553.04883	323.68582	1323.39026	-688.55402	216.81166	1368.10522	-726.89984	237.74971	1330.94373	-627.65234	83.63262	1593.22949	-360.13919	641.87622	1561.48682	-334.20273	520.72620	1549.20313	-377.47278	255.52254	1492.43115	-394.40903	73.98718	1445.32532	-432.56525	51.52379	1499.49683	-242.48001	39.09108	1425.95984	-407.77054	1708.09485															 
43	0.420	1363.31628	-299.13010	1663.73621	1495.11963	-293.01035	1656.07739	1371.39478	-435.25610	1618.15894	1500.81738	-427.57150	1615.32178	1428.57214	-442.28198	1459.38708	1429.84229	-491.61319	1133.40320	1428.14380	-333.13831	1379.48730	1417.99976	-299.20682	1202.65149	1506.53613	-519.10663	1291.17163	1267.84412	-391.77725	1415.41833	1192.29150	-400.31738	1215.99939	1179.19385	-403.51471	1103.41016	1155.13721	-346.25089	964.64264	1191.97095	-251.41391	876.58801	1161.61963	-310.14758	850.77179	1154.92615	-243.67055	789.79901	1588.85852	-377.24802	1411.61523	1680.99072	-428.21103	1219.91650	1698.57690	-429.74289	1098.52002	1722.31653	-424.78726	979.45532	1701.41345	-375.48587	835.15222	1737.57751	-431.60980	841.55365	1744.83704	-400.56760	763.54871	1320.60376	-325.91714	961.05646	1539.34534	-322.25308	974.30438	1350.23987	-482.71823	994.51434	1517.10986	-474.71017	1006.16095	1272.70496	-365.34940	642.14362	1294.27869	-338.68167	481.79498	1293.58948	-523.80597	321.94977	1324.68359	-655.55414	210.10248	1369.53162	-695.21326	228.69475	1331.34644	-587.17053	81.28405	1594.13379	-352.31967	641.94092	1562.46667	-328.77341	520.15448	1549.45642	-376.00354	255.58008	1492.40442	-394.35995	74.19923	1445.15649	-432.44873	51.93480	1499.90588	-242.05107	38.74802	1426.46313	-393.68918	1709.74060															 
